<svg xmlns="http://www.w3.org/2000/svg"  viewBox="0 0 64 64" width="64px" height="64px"><linearGradient id="n7RD_AYHAcJE8cj37epbta" x1="32" x2="32" y1="9.333" y2="54.172" gradientUnits="userSpaceOnUse" spreadMethod="reflect"><stop offset="0" stop-color="#1a6dff"/><stop offset="1" stop-color="#c822ff"/></linearGradient><path fill="url(#n7RD_AYHAcJE8cj37epbta)" d="M41.33,10c-3.27,0-6.41,0.72-9.33,2.14C29.08,10.72,25.94,10,22.67,10C10.72,10,1,19.87,1,32 s9.72,22,21.67,22c3.27,0,6.41-0.72,9.33-2.14c2.92,1.42,6.06,2.14,9.33,2.14C53.28,54,63,44.13,63,32S53.28,10,41.33,10z M41.33,52 c-3.12,0-6.1-0.72-8.87-2.15L32,49.62l-0.46,0.23C28.78,51.28,25.79,52,22.67,52C11.82,52,3,43.03,3,32c0-11.03,8.82-20,19.67-20 c3.12,0,6.11,0.72,8.87,2.15l0.48,0.22l0.48-0.25c2.75-1.41,5.73-2.12,8.83-2.12C52.18,12,61,20.97,61,32 C61,43.03,52.18,52,41.33,52z"/><linearGradient id="n7RD_AYHAcJE8cj37epbtb" x1="32" x2="32" y1="12" y2="52" gradientUnits="userSpaceOnUse" spreadMethod="reflect"><stop offset="0" stop-color="#6dc7ff"/><stop offset="1" stop-color="#e6abff"/></linearGradient><path fill="url(#n7RD_AYHAcJE8cj37epbtb)" d="M41.33,12c-3.1,0-6.08,0.71-8.83,2.12l-0.48,0.25l-0.48-0.22C28.78,12.72,25.79,12,22.67,12 C11.82,12,3,20.97,3,32c0,11.03,8.82,20,19.67,20c3.12,0,6.11-0.72,8.87-2.15L32,49.62l0.46,0.23c2.77,1.43,5.75,2.15,8.87,2.15 C52.18,52,61,43.03,61,32C61,20.97,52.18,12,41.33,12z M41.34,49c-1.62,0-3.22-0.24-4.76-0.7l-1.63-0.49l1.23-1.19 c3.21-3.1,5.08-6.91,5.7-11.62H36v3.03c0.23,0.01,0.48,0.01,0.73,0.01h1.59l-0.69,1.43c-1.16,2.42-2.9,4.56-5.03,6.17L32,46.1 l-0.6-0.45c-2.13-1.62-3.87-3.75-5.04-6.18l-0.69-1.43h1.59c0.26,0,0.51,0,0.74-0.01V35h-5.88c0.62,4.71,2.49,8.52,5.7,11.62 l1.22,1.18l-1.62,0.5c-1.54,0.46-3.14,0.7-4.76,0.7C13.48,49,6,41.37,6,32c0-6.94,4.06-13.11,10.36-15.74 c3.48-1.46,7.44-1.65,11.06-0.56l1.62,0.5l-1.22,1.18c-1.05,1.02-2,2.16-2.81,3.38c-1.07,1.63-1.9,3.38-2.46,5.24h3.19 c1.12-3.05,3.07-5.68,5.66-7.64l0.61-0.47l0.6,0.47c2.61,1.99,4.53,4.61,5.65,7.64h3.19c-0.57-1.86-1.39-3.62-2.46-5.24 c-0.81-1.22-1.76-2.36-2.81-3.38l-1.22-1.18l1.62-0.5c1.54-0.46,3.14-0.7,4.76-0.7C50.52,15,58,22.63,58,32S50.52,49,41.34,49z"/><linearGradient id="n7RD_AYHAcJE8cj37epbtc" x1="32" x2="32" y1="10.5" y2="53.628" gradientUnits="userSpaceOnUse" spreadMethod="reflect"><stop offset="0" stop-color="#1a6dff"/><stop offset="1" stop-color="#c822ff"/></linearGradient><path fill="url(#n7RD_AYHAcJE8cj37epbtc)" d="M41.34,15c-1.62,0-3.22,0.24-4.76,0.7l-1.62,0.5l1.22,1.18c1.05,1.02,2,2.16,2.81,3.38 c1.07,1.62,1.89,3.38,2.46,5.24h-3.19c-1.12-3.03-3.04-5.65-5.65-7.64l-0.6-0.47l-0.61,0.47c-2.59,1.96-4.54,4.59-5.66,7.64h-3.19 c0.56-1.86,1.39-3.61,2.46-5.24c0.81-1.22,1.76-2.36,2.81-3.38l1.22-1.18l-1.62-0.5c-3.62-1.09-7.58-0.9-11.06,0.56 C10.06,18.89,6,25.06,6,32c0,9.37,7.48,17,16.66,17c1.62,0,3.22-0.24,4.76-0.7l1.62-0.5l-1.22-1.18c-3.21-3.1-5.08-6.91-5.7-11.62 H28v3.03c-0.23,0.01-0.48,0.01-0.74,0.01h-1.59l0.69,1.43c1.17,2.43,2.91,4.56,5.04,6.18L32,46.1l0.6-0.46 c2.13-1.61,3.87-3.75,5.03-6.17l0.69-1.43h-1.59c-0.25,0-0.5,0-0.73-0.01V35h5.88c-0.62,4.71-2.49,8.52-5.7,11.62l-1.23,1.19 l1.63,0.49c1.54,0.46,3.14,0.7,4.76,0.7C50.52,49,58,41.37,58,32S50.52,15,41.34,15z M41.34,47c-0.86,0-1.71-0.08-2.54-0.22 c3.04-3.46,4.75-7.63,5.2-12.69L44.09,33H34v6.95L34.95,40c0,0,0.04,0,0.12,0c-0.83,1.34-1.87,2.55-3.07,3.57 c-1.2-1.02-2.24-2.22-3.07-3.57c0.08,0,0.12,0,0.12,0L30,39.95V33H19.91L20,34.09c0.45,5.07,2.16,9.23,5.2,12.69 C24.37,46.92,23.52,47,22.66,47C14.58,47,8,40.27,8,32c0-6.13,3.58-11.58,9.13-13.89c2.54-1.07,5.37-1.37,8.08-0.89 c-0.68,0.77-1.3,1.59-1.86,2.44c-1.44,2.17-2.48,4.57-3.08,7.11L19.98,28h7.2l0.22-0.69c0.87-2.71,2.46-5.07,4.6-6.88 c2.14,1.81,3.73,4.17,4.6,6.88L36.82,28h7.2l-0.29-1.23c-0.61-2.54-1.64-4.94-3.08-7.11c-0.56-0.85-1.18-1.67-1.86-2.44 c0.84-0.14,1.69-0.22,2.55-0.22C49.42,17,56,23.73,56,32C56,40.27,49.42,47,41.34,47z"/></svg>