<svg xmlns="http://www.w3.org/2000/svg"  viewBox="0 0 64 64" width="64px" height="64px" clip-rule="evenodd"><linearGradient id="Y4SrlNJ1IH1gkHfPARRIpa" x1="32" x2="32" y1="6.362" y2="58.362" gradientUnits="userSpaceOnUse"><stop offset="0" stop-color="#1a6dff"/><stop offset="1" stop-color="#c822ff"/></linearGradient><path fill="url(#Y4SrlNJ1IH1gkHfPARRIpa)" d="M32.282,58C27.191,58,11,39.925,11,27.633C11,15.704,20.547,6,32.282,6 C43.512,6,53,15.906,53,27.633C53,39.551,37.115,58,32.282,58z M32.282,8C21.65,8,13,16.808,13,27.633 C13,39.028,28.447,56,32.282,56C35.692,56,51,38.901,51,27.633C51,16.991,42.428,8,32.282,8z"/><g><linearGradient id="Y4SrlNJ1IH1gkHfPARRIpb" x1="32" x2="32" y1="16.702" y2="37.393" gradientUnits="userSpaceOnUse"><stop offset="0" stop-color="#8cc5fc"/><stop offset="1" stop-color="#d5a8fb"/></linearGradient><path fill="url(#Y4SrlNJ1IH1gkHfPARRIpb)" fill-rule="evenodd" d="M32,16c-0.529,0-1.046,0.05-1.555,0.122 C31.39,16.947,32,18.147,32,19.5c0,2.485-2.015,4.5-4.5,4.5c-2.133,0-3.911-1.489-4.374-3.481C21.795,22.338,21,24.573,21,27 c0,6.075,4.925,11,11,11s11-4.925,11-11S38.075,16,32,16z" clip-rule="evenodd"/></g></svg>